<svg width="32" height="24" viewBox="0 0 32 24" fill="none" xmlns="http://www.w3.org/2000/svg">
<g id="Kenya (KE)" clip-path="url(#clip0_6815_2768)">
<path id="Vector" d="M-24 -18H56V42H-24V-18Z" fill="white"/>
<g id="b">
<path id="Vector_2" d="M5.2749 29.8125L5.9499 30.1875L23.4624 -0.1875C24.4749 -0.4125 25.0374 -1.3875 25.5999 -2.3625C25.9749 -3.0375 27.4749 -5.625 28.1124 -9C26.3333 -7.41904 24.8258 -5.55678 23.6499 -3.4875C23.0874 -2.5125 22.5249 -1.5375 22.7874 -0.525001L5.2749 29.8125Z" fill="black" stroke="black" stroke-width="0.375"/>
<path id="Vector_3" d="M5.2749 29.8125L5.9499 30.1875L23.4624 -0.1875C24.4749 -0.4125 25.0374 -1.3875 25.5999 -2.3625C25.9749 -3.0375 27.4749 -5.625 28.1124 -9C26.3333 -7.41904 24.8258 -5.55678 23.6499 -3.4875C23.0874 -2.5125 22.5249 -1.5375 22.7874 -0.525001L5.2749 29.8125Z" fill="white"/>
</g>
<g id="b_2">
<path id="Vector_4" d="M26.7251 29.8125L26.0501 30.1875L8.5376 -0.1875C7.5251 -0.4125 6.96259 -1.3875 6.40009 -2.3625C6.02509 -3.0375 4.52509 -5.625 3.8876 -9C5.66669 -7.41904 7.17422 -5.55678 8.3501 -3.4875C8.9126 -2.5125 9.4751 -1.5375 9.2126 -0.525001L26.7251 29.8125Z" fill="black" stroke="black" stroke-width="0.375"/>
<path id="Vector_5" d="M26.7251 29.8125L26.0501 30.1875L8.5376 -0.1875C7.5251 -0.4125 6.96259 -1.3875 6.40009 -2.3625C6.02509 -3.0375 4.52509 -5.625 3.8876 -9C5.66669 -7.41904 7.17422 -5.55678 8.3501 -3.4875C8.9126 -2.5125 9.4751 -1.5375 9.2126 -0.525001L26.7251 29.8125Z" fill="white"/>
</g>
<path id="Vector_6" d="M56.0626 3H23.1251C22.0001 0 18.2501 -6 16.0001 -6C13.7501 -6 10.0001 0 8.8751 3H-24.0249V21H8.8751C10.0001 24 13.7501 30 16.0001 30C18.2501 30 22.0001 24 23.1251 21H56.0626V3Z" fill="#BB0000"/>
<path id="c" d="M23.125 21C24.25 18 25 15 25 12C25 9 24.25 6 23.125 3C22 6 21.25 9 21.25 12C21.25 15 22 18 23.125 21Z" fill="black"/>
<path id="c_2" d="M8.875 21C7.75 18 7 15 7 12C7 9 7.75 6 8.875 3C10 6 10.75 9 10.75 12C10.75 15 10 18 8.875 21Z" fill="black"/>
<g id="Group">
<path id="Vector_7" d="M16 14.25C16.8284 14.25 17.5 13.2426 17.5 12C17.5 10.7574 16.8284 9.75 16 9.75C15.1716 9.75 14.5 10.7574 14.5 12C14.5 13.2426 15.1716 14.25 16 14.25Z" fill="white"/>
<path id="d" d="M16.375 14.175C16.375 14.175 17.875 17.175 17.875 22.05C17.875 26.925 16.375 29.925 16.375 29.925V14.175Z" fill="white"/>
<path id="d_2" d="M15.625 9.82495C15.625 9.82495 14.125 6.82495 14.125 1.94995C14.125 -2.92505 15.625 -5.92505 15.625 -5.92505V9.82495Z" fill="white"/>
<path id="d_3" d="M15.625 14.175C15.625 14.175 14.125 17.175 14.125 22.05C14.125 26.925 15.625 29.925 15.625 29.925V14.175Z" fill="white"/>
<path id="d_4" d="M16.375 9.82495C16.375 9.82495 17.875 6.82495 17.875 1.94995C17.875 -2.92505 16.375 -5.92505 16.375 -5.92505V9.82495Z" fill="white"/>
</g>
</g>
<defs>
<clipPath id="clip0_6815_2768">
<rect width="80" height="60" fill="white" transform="translate(-24 -18)"/>
</clipPath>
</defs>
</svg>
