<svg width="176" height="37" viewBox="0 0 176 37" fill="none" xmlns="http://www.w3.org/2000/svg">
<rect y="4.54449" width="7.81753" height="36.7424" rx="3.90876" transform="rotate(-30 0 4.54449)" fill="#1FAB89"/>
<rect x="12.5707" y="4.54449" width="7.81753" height="36.7424" rx="3.90876" transform="rotate(-30 12.5707 4.54449)" fill="#1FAB89"/>
<circle cx="37.2595" cy="11.4045" r="3.51789" fill="#1FAB89"/>
<path d="M49.0276 28.3643C48.8312 28.3643 48.7063 28.2661 48.6527 28.0697L44.0198 11.1984C43.9484 10.9484 44.0466 10.8235 44.3144 10.8235H47.4744C47.6886 10.8235 47.8136 10.9216 47.8493 11.118L50.0988 19.7411C50.2238 20.2589 50.3398 20.8123 50.447 21.4015C50.5541 21.9728 50.6434 22.5352 50.7148 23.0886C50.804 23.6242 50.8844 24.1063 50.9558 24.5347H51.0093C51.1879 23.892 51.3664 23.2582 51.5449 22.6334C51.7235 22.0085 51.9109 21.3836 52.1073 20.7588L54.0087 14.8137L52.9911 11.6001C52.9553 11.4751 52.9643 11.3858 53.0178 11.3323C53.0892 11.2609 53.1874 11.2252 53.3124 11.2252H56.3921C56.5885 11.2252 56.7135 11.3233 56.767 11.5197L59.2308 20.6784C59.4093 21.3212 59.57 21.9639 59.7128 22.6066C59.8556 23.2493 59.9806 23.892 60.0877 24.5347H60.1413C60.2127 24.0884 60.293 23.5707 60.3823 22.9815C60.4716 22.3924 60.5698 21.7943 60.6769 21.1873C60.784 20.5802 60.8911 20.0357 60.9982 19.5537L63.1406 11.118C63.1942 10.9216 63.3192 10.8235 63.5155 10.8235H66.7023C66.988 10.8235 67.0951 10.9484 67.0237 11.1984L62.4443 28.0697C62.4086 28.2661 62.2926 28.3643 62.0962 28.3643H58.4274C58.2131 28.3643 58.0882 28.2661 58.0524 28.0697L56.6331 23.0618C56.4367 22.3834 56.2582 21.7318 56.0975 21.1069C55.9368 20.4642 55.7762 19.8393 55.6155 19.2323H55.5619C55.4012 19.8215 55.2316 20.4285 55.0531 21.0534C54.8924 21.6782 54.705 22.3388 54.4907 23.0351L52.9375 28.0965C52.8661 28.275 52.7322 28.3643 52.5358 28.3643H49.0276ZM73.1811 28.6856C71.2351 28.6856 69.7176 28.2214 68.6285 27.2931C67.5573 26.3647 67.0217 24.9721 67.0217 23.1154V20.3571C67.0217 18.5003 67.5573 17.1078 68.6285 16.1794C69.7176 15.2511 71.2351 14.7869 73.1811 14.7869C75.1449 14.7869 76.6625 15.2511 77.7337 16.1794C78.8049 17.1078 79.3405 18.5003 79.3405 20.3571V23.1154C79.3405 24.9721 78.8049 26.3647 77.7337 27.2931C76.6625 28.2214 75.1449 28.6856 73.1811 28.6856ZM73.1811 25.5256C74.038 25.5256 74.654 25.3114 75.0289 24.8829C75.4217 24.4365 75.6181 23.7313 75.6181 22.7673V20.7052C75.6181 19.7411 75.4217 19.0449 75.0289 18.6164C74.654 18.1701 74.038 17.9469 73.1811 17.9469C72.342 17.9469 71.7261 18.1701 71.3333 18.6164C70.9405 19.0449 70.7441 19.7411 70.7441 20.7052V22.7673C70.7441 23.7313 70.9405 24.4365 71.3333 24.8829C71.7261 25.3114 72.342 25.5256 73.1811 25.5256ZM81.6263 28.3643C81.3942 28.3643 81.2781 28.2482 81.2781 28.0161V18.4825C81.2781 17.929 81.2603 17.4113 81.2246 16.9293C81.2067 16.4294 81.171 15.9473 81.1175 15.4831C81.0818 15.2332 81.1978 15.1082 81.4656 15.1082H84.1168C84.3132 15.1082 84.4382 15.2064 84.4917 15.4028C84.5631 15.7063 84.6167 16.0545 84.6524 16.4472C84.6881 16.84 84.7149 17.206 84.7327 17.5452L85.0005 19.1788V28.0161C85.0005 28.2482 84.8845 28.3643 84.6524 28.3643H81.6263ZM84.7327 20.6249L84.5185 17.5184C84.8756 17.0007 85.2862 16.5365 85.7504 16.1259C86.2146 15.7152 86.6787 15.3939 87.1429 15.1618C87.625 14.9118 88.0713 14.7869 88.4819 14.7869C88.7676 14.7869 88.9997 14.8226 89.1782 14.894C89.3567 14.9476 89.4549 15.0725 89.4728 15.2689C89.4728 15.7331 89.4639 16.2419 89.446 16.7954C89.446 17.3488 89.4192 17.8666 89.3657 18.3486C89.33 18.6164 89.1961 18.7235 88.964 18.67C88.8568 18.6342 88.7229 18.6075 88.5623 18.5896C88.4016 18.5718 88.2498 18.5628 88.107 18.5628C87.7321 18.5628 87.3482 18.6432 86.9555 18.8038C86.5627 18.9645 86.1699 19.1966 85.7772 19.5001C85.4022 19.7858 85.0541 20.1607 84.7327 20.6249ZM90.8539 28.3643C90.6219 28.3643 90.5058 28.2482 90.5058 28.0161V10.4218C90.5058 10.1897 90.6219 10.0736 90.8539 10.0736H93.8801C94.1122 10.0736 94.2282 10.1897 94.2282 10.4218V16.7418C94.2282 17.3488 94.2193 17.9647 94.2014 18.5896C94.2014 19.1966 94.1836 19.8126 94.1479 20.4374H94.2282C94.496 20.0089 94.7817 19.5894 95.0852 19.1788C95.4065 18.7503 95.719 18.3486 96.0225 17.9737L98.1916 15.2957C98.2987 15.1707 98.4326 15.1082 98.5933 15.1082H102.369C102.512 15.1082 102.601 15.1529 102.637 15.2421C102.673 15.3135 102.646 15.4117 102.557 15.5367L98.1113 20.6517L102.932 27.9626C103.003 28.0697 103.012 28.1679 102.958 28.2571C102.923 28.3286 102.842 28.3643 102.717 28.3643H99.1289C98.9504 28.3643 98.8076 28.2928 98.7004 28.15L95.5672 23.1957L94.2282 24.6686V28.0161C94.2282 28.2482 94.1122 28.3643 93.8801 28.3643H90.8539ZM112.698 28.3643C112.466 28.3643 112.35 28.2482 112.35 28.0161V19.9286C112.35 19.268 112.216 18.786 111.948 18.4825C111.698 18.1611 111.287 18.0005 110.716 18.0005C110.145 18.0005 109.582 18.1701 109.029 18.5093C108.493 18.8485 107.922 19.3305 107.315 19.9554L107.101 17.4649C107.565 16.965 108.047 16.5186 108.547 16.1259C109.065 15.7152 109.618 15.3939 110.207 15.1618C110.814 14.9118 111.484 14.7869 112.216 14.7869C113.483 14.7869 114.439 15.1439 115.081 15.8581C115.742 16.5722 116.072 17.6791 116.072 19.1788V28.0161C116.072 28.2482 115.956 28.3643 115.724 28.3643H112.698ZM104.423 28.3643C104.191 28.3643 104.075 28.2482 104.075 28.0161V18.5093C104.075 17.9737 104.057 17.4381 104.021 16.9025C103.985 16.3669 103.95 15.9027 103.914 15.5099C103.878 15.2421 103.994 15.1082 104.262 15.1082H106.913C107.11 15.1082 107.235 15.2064 107.288 15.4028C107.324 15.5635 107.36 15.7777 107.395 16.0455C107.431 16.2955 107.467 16.5633 107.503 16.8489C107.538 17.1346 107.556 17.3934 107.556 17.6255L107.797 18.9645V28.0161C107.797 28.2482 107.681 28.3643 107.449 28.3643H104.423ZM126.223 28.3643C126.116 28.3643 126.036 28.3375 125.982 28.2839C125.928 28.2125 125.884 28.1232 125.848 28.0161C125.812 27.8197 125.768 27.5252 125.714 27.1324C125.661 26.7218 125.616 26.3201 125.58 25.9273L125.313 24.8025V19.4198C125.313 18.7414 125.179 18.2683 124.911 18.0005C124.661 17.7148 124.206 17.572 123.545 17.572C122.331 17.572 121.751 18.0272 121.804 18.9377C121.822 19.1698 121.706 19.2859 121.456 19.2859H118.644C118.43 19.2859 118.305 19.1431 118.269 18.8574C118.162 17.5541 118.573 16.5543 119.501 15.8581C120.448 15.1439 121.84 14.7869 123.679 14.7869C125.554 14.7869 126.91 15.1707 127.75 15.9384C128.606 16.6882 129.035 17.8844 129.035 19.5269V24.9632C129.035 25.5345 129.044 26.0701 129.062 26.57C129.097 27.052 129.142 27.5252 129.196 27.9893C129.231 28.2393 129.115 28.3643 128.847 28.3643H126.223ZM121.081 28.6856C120.01 28.6856 119.18 28.3643 118.591 27.7215C118.002 27.061 117.707 26.1326 117.707 24.9364C117.707 24.0081 117.877 23.2582 118.216 22.6869C118.573 22.0978 119.153 21.6425 119.957 21.3212C120.778 20.9819 121.867 20.7588 123.224 20.6517L125.714 20.4106L125.687 22.4459L123.706 22.6334C122.795 22.7226 122.161 22.9101 121.804 23.1957C121.465 23.4635 121.296 23.9009 121.296 24.508C121.296 24.99 121.394 25.3381 121.59 25.5524C121.787 25.7666 122.081 25.8737 122.474 25.8737C122.974 25.8737 123.474 25.722 123.974 25.4185C124.473 25.115 125.08 24.5794 125.795 23.8117L125.955 26.0344C125.455 26.5522 124.955 27.0163 124.456 27.427C123.974 27.8197 123.456 28.1322 122.902 28.3643C122.367 28.5785 121.76 28.6856 121.081 28.6856ZM136.941 28.6856C135.834 28.6856 134.941 28.5249 134.263 28.2036C133.602 27.8644 133.12 27.3466 132.817 26.6503C132.531 25.9362 132.388 25.0078 132.388 23.8652V18.2147H130.46C130.228 18.2147 130.112 18.0986 130.112 17.8666V15.4564C130.112 15.2243 130.228 15.1082 130.46 15.1082H132.496L132.897 11.9214C132.951 11.6893 133.076 11.5733 133.272 11.5733H135.763C135.995 11.5733 136.111 11.6893 136.111 11.9214V15.1082H139.565C139.797 15.1082 139.914 15.2243 139.914 15.4564V17.8666C139.914 18.0986 139.797 18.2147 139.565 18.2147H136.111V23.6242C136.111 24.2669 136.236 24.7401 136.486 25.0436C136.736 25.3471 137.137 25.4988 137.691 25.4988C137.994 25.4988 138.298 25.472 138.601 25.4185C138.923 25.3471 139.235 25.2578 139.539 25.1507C139.806 25.0436 139.94 25.1328 139.94 25.4185V27.8554C139.94 28.034 139.851 28.1679 139.673 28.2571C139.315 28.3821 138.896 28.4803 138.414 28.5517C137.932 28.641 137.441 28.6856 136.941 28.6856ZM141.704 28.3643C141.472 28.3643 141.356 28.2482 141.356 28.0161V15.4564C141.356 15.2243 141.472 15.1082 141.704 15.1082H144.73C144.962 15.1082 145.078 15.2243 145.078 15.4564V28.0161C145.078 28.2482 144.962 28.3643 144.73 28.3643H141.704ZM143.23 13.3943C142.57 13.3943 142.061 13.2247 141.704 12.8855C141.347 12.5463 141.168 12.1 141.168 11.5465V11.0645C141.168 10.4753 141.347 10.0201 141.704 9.6987C142.061 9.35949 142.57 9.18988 143.23 9.18988C143.909 9.18988 144.417 9.35949 144.757 9.6987C145.114 10.0201 145.292 10.4753 145.292 11.0645V11.5465C145.292 12.1 145.114 12.5463 144.757 12.8855C144.417 13.2247 143.909 13.3943 143.23 13.3943ZM153.205 28.6856C151.259 28.6856 149.741 28.2214 148.652 27.2931C147.581 26.3647 147.045 24.9721 147.045 23.1154V20.3571C147.045 18.5003 147.581 17.1078 148.652 16.1794C149.741 15.2511 151.259 14.7869 153.205 14.7869C155.168 14.7869 156.686 15.2511 157.757 16.1794C158.828 17.1078 159.364 18.5003 159.364 20.3571V23.1154C159.364 24.9721 158.828 26.3647 157.757 27.2931C156.686 28.2214 155.168 28.6856 153.205 28.6856ZM153.205 25.5256C154.061 25.5256 154.677 25.3114 155.052 24.8829C155.445 24.4365 155.642 23.7313 155.642 22.7673V20.7052C155.642 19.7411 155.445 19.0449 155.052 18.6164C154.677 18.1701 154.061 17.9469 153.205 17.9469C152.365 17.9469 151.75 18.1701 151.357 18.6164C150.964 19.0449 150.768 19.7411 150.768 20.7052V22.7673C150.768 23.7313 150.964 24.4365 151.357 24.8829C151.75 25.3114 152.365 25.5256 153.205 25.5256ZM169.925 28.3643C169.693 28.3643 169.577 28.2482 169.577 28.0161V19.9286C169.577 19.268 169.443 18.786 169.175 18.4825C168.925 18.1611 168.514 18.0005 167.943 18.0005C167.372 18.0005 166.809 18.1701 166.256 18.5093C165.72 18.8485 165.149 19.3305 164.542 19.9554L164.328 17.4649C164.792 16.965 165.274 16.5186 165.774 16.1259C166.292 15.7152 166.845 15.3939 167.434 15.1618C168.041 14.9118 168.711 14.7869 169.443 14.7869C170.71 14.7869 171.665 15.1439 172.308 15.8581C172.969 16.5722 173.299 17.6791 173.299 19.1788V28.0161C173.299 28.2482 173.183 28.3643 172.951 28.3643H169.925ZM161.65 28.3643C161.418 28.3643 161.302 28.2482 161.302 28.0161V18.5093C161.302 17.9737 161.284 17.4381 161.248 16.9025C161.212 16.3669 161.177 15.9027 161.141 15.5099C161.105 15.2421 161.221 15.1082 161.489 15.1082H164.14C164.337 15.1082 164.462 15.2064 164.515 15.4028C164.551 15.5635 164.587 15.7777 164.622 16.0455C164.658 16.2955 164.694 16.5633 164.729 16.8489C164.765 17.1346 164.783 17.3934 164.783 17.6255L165.024 18.9645V28.0161C165.024 28.2482 164.908 28.3643 164.676 28.3643H161.65Z" fill="#014337"/>
</svg>
